<svg id="Layer_1" data-name="Layer 1" xmlns="http://www.w3.org/2000/svg" xmlns:xlink="http://www.w3.org/1999/xlink" viewBox="0 0 39.12 27.44"><defs><style>.cls-1{fill:url(#linear-gradient);}.cls-2{fill:url(#linear-gradient-2);}.cls-3{fill:url(#linear-gradient-3);}.cls-4{fill:url(#linear-gradient-4);}.cls-5{fill:url(#linear-gradient-5);}.cls-6{fill:url(#linear-gradient-6);}.cls-7{fill:url(#linear-gradient-7);}.cls-8{fill:url(#linear-gradient-8);}</style><linearGradient id="linear-gradient" y1="13.46" x2="18.8" y2="13.46" gradientUnits="userSpaceOnUse"><stop offset="0" stop-color="#57c09c"/><stop offset="1" stop-color="#175a9d"/></linearGradient><linearGradient id="linear-gradient-2" x1="20.91" y1="24.11" x2="24.66" y2="24.11" xlink:href="#linear-gradient"/><linearGradient id="linear-gradient-3" x1="14.42" y1="7.78" x2="22.75" y2="7.78" xlink:href="#linear-gradient"/><linearGradient id="linear-gradient-4" x1="23.3" y1="13.46" x2="39.12" y2="13.46" xlink:href="#linear-gradient"/><linearGradient id="linear-gradient-5" x1="11.64" y1="13.55" x2="19.13" y2="13.55" xlink:href="#linear-gradient"/><linearGradient id="linear-gradient-6" x1="18.8" y1="17.3" x2="23.3" y2="17.3" xlink:href="#linear-gradient"/><linearGradient id="linear-gradient-7" x1="11.64" y1="23.46" x2="20.91" y2="23.46" xlink:href="#linear-gradient"/><linearGradient id="linear-gradient-8" x1="22.75" y1="17.75" x2="27.48" y2="17.75" xlink:href="#linear-gradient"/></defs><title>logo</title><polygon class="cls-1" points="5.5 17.94 12.33 2.06 16.59 12 18.8 13.29 13.09 0 11.57 0 0 26.91 1.64 26.91 4.85 19.47 11.64 19.47 11.64 17.94 5.5 17.94"/><polygon class="cls-2" points="22.98 26.91 24.66 26.91 22.26 21.32 20.91 22.1 22.98 26.91"/><polygon class="cls-3" points="16.06 0 14.42 0 20.54 14.29 22.75 15.56 16.06 0"/><polygon class="cls-4" points="37.45 0 26.75 24.89 24.63 19.95 23.3 20.72 25.95 26.92 27.52 26.92 39.12 0 37.45 0"/><polygon class="cls-5" points="11.64 17.94 19.13 17.94 16.59 12 11.64 9.15 11.64 17.94"/><polygon class="cls-6" points="18.8 13.29 22.26 21.32 23.3 20.72 20.54 14.29 18.8 13.29"/><polygon class="cls-7" points="11.64 19.47 11.64 27.44 20.91 22.1 19.77 19.47 11.64 19.47"/><polygon class="cls-8" points="27.48 18.3 22.75 15.56 24.63 19.95 27.48 18.3"/></svg>